G04*
G04 #@! TF.GenerationSoftware,Altium Limited,Altium Designer,25.4.2 (15)*
G04*
G04 Layer_Color=32768*
%FSLAX44Y44*%
%MOMM*%
G71*
G04*
G04 #@! TF.SameCoordinates,8EE26F3C-D7A1-4C18-BBE8-6C97D16B18D0*
G04*
G04*
G04 #@! TF.FilePolarity,Positive*
G04*
G01*
G75*
%ADD93C,0.0500*%
D93*
X264200Y11470D02*
Y41870D01*
X396200D01*
Y11470D02*
Y41870D01*
X264200Y11470D02*
X396200D01*
X120810Y105130D02*
X140810D01*
X120810Y70130D02*
Y105130D01*
Y70130D02*
X140810D01*
Y105130D01*
X911180Y99100D02*
Y345400D01*
X813480D02*
X911180D01*
X813480Y99100D02*
Y345400D01*
Y99100D02*
X911180D01*
X186050Y119940D02*
Y189940D01*
Y119940D02*
X271150D01*
Y189940D01*
X186050D02*
X271150D01*
X455610Y208420D02*
Y225920D01*
X415610D02*
X455610D01*
X415610Y208420D02*
Y225920D01*
Y208420D02*
X455610D01*
Y186830D02*
Y204330D01*
X415610D02*
X455610D01*
X415610Y186830D02*
Y204330D01*
Y186830D02*
X455610D01*
X732470Y146190D02*
Y163690D01*
X692470D02*
X732470D01*
X692470Y146190D02*
Y163690D01*
Y146190D02*
X732470D01*
X455610Y165240D02*
Y182740D01*
X415610D02*
X455610D01*
X415610Y165240D02*
Y182740D01*
Y165240D02*
X455610D01*
X732470Y265570D02*
Y283070D01*
X692470D02*
X732470D01*
X692470Y265570D02*
Y283070D01*
Y265570D02*
X732470D01*
Y218580D02*
Y236080D01*
X692470D02*
X732470D01*
X692470Y218580D02*
Y236080D01*
Y218580D02*
X732470D01*
Y241440D02*
Y258940D01*
X692470D02*
X732470D01*
X692470Y241440D02*
Y258940D01*
Y241440D02*
X732470D01*
X692470Y196990D02*
Y214490D01*
Y196990D02*
X732470D01*
Y214490D01*
X692470D02*
X732470D01*
X692470Y172860D02*
Y190360D01*
Y172860D02*
X732470D01*
Y190360D01*
X692470D02*
X732470D01*
X692470Y296050D02*
Y313550D01*
Y296050D02*
X732470D01*
Y313550D01*
X692470D02*
X732470D01*
Y316370D02*
Y333870D01*
X692470D02*
X732470D01*
X692470Y316370D02*
Y333870D01*
Y316370D02*
X732470D01*
X523380Y57470D02*
X540880D01*
Y97470D01*
X523380D02*
X540880D01*
X523380Y57470D02*
Y97470D01*
X574470Y57920D02*
Y91120D01*
X553290Y57920D02*
X574470D01*
X553290D02*
Y91120D01*
X574470D01*
X606900Y57540D02*
Y92540D01*
X586900Y57540D02*
X606900D01*
X586900D02*
Y92540D01*
X606900D01*
X672980Y90150D02*
X686480D01*
X672980D02*
Y102650D01*
X657980D02*
X672980D01*
X657980Y90150D02*
Y102650D01*
X644480Y90150D02*
X657980D01*
X644480Y24150D02*
Y90150D01*
Y24150D02*
X657980D01*
Y11650D02*
Y24150D01*
Y11650D02*
X672980D01*
Y24150D01*
X686480D01*
Y90150D01*
X616090Y57470D02*
X633590D01*
Y97470D01*
X616090D02*
X633590D01*
X616090Y57470D02*
Y97470D01*
X432910Y61350D02*
Y96350D01*
X412910Y61350D02*
X432910D01*
X412910D02*
Y96350D01*
X432910D01*
X440830Y61280D02*
X458330D01*
Y101280D01*
X440830D02*
X458330D01*
X440830Y61280D02*
Y101280D01*
X496450Y90150D02*
X509950D01*
X496450D02*
Y102650D01*
X481450D02*
X496450D01*
X481450Y90150D02*
Y102650D01*
X467950Y90150D02*
X481450D01*
X467950Y24150D02*
Y90150D01*
Y24150D02*
X481450D01*
Y11650D02*
Y24150D01*
Y11650D02*
X496450D01*
Y24150D01*
X509950D01*
Y90150D01*
X374690Y215940D02*
Y322540D01*
Y215940D02*
X405090D01*
Y322540D01*
X374690D02*
X405090D01*
X419380Y285590D02*
X454380D01*
Y265590D02*
Y285590D01*
X419380Y265590D02*
X454380D01*
X419380D02*
Y285590D01*
Y310990D02*
X454380D01*
Y290990D02*
Y310990D01*
X419380Y290990D02*
X454380D01*
X419380D02*
Y310990D01*
Y335120D02*
X454380D01*
Y315120D02*
Y335120D01*
X419380Y315120D02*
X454380D01*
X419380D02*
Y335120D01*
X309920Y266740D02*
X365720D01*
X309920D02*
Y322540D01*
X365720D01*
Y266740D02*
Y322540D01*
X288430Y309250D02*
X305930D01*
Y349250D01*
X288430D02*
X305930D01*
X288430Y309250D02*
Y349250D01*
Y278760D02*
X305930D01*
X288430Y238760D02*
Y278760D01*
Y238760D02*
X305930D01*
Y278760D01*
X259220Y309250D02*
X276720D01*
Y349250D01*
X259220D02*
X276720D01*
X259220Y309250D02*
Y349250D01*
Y279080D02*
X276720D01*
X259220Y239080D02*
Y279080D01*
Y239080D02*
X276720D01*
Y279080D01*
X147460Y274640D02*
X164960D01*
Y314640D01*
X147460D02*
X164960D01*
X147460Y274640D02*
Y314640D01*
X120790Y274640D02*
X138290D01*
Y314640D01*
X120790D02*
X138290D01*
X120790Y274640D02*
Y314640D01*
X-120Y161250D02*
X107380D01*
X-120Y54650D02*
X107380D01*
Y161250D01*
X-120Y54650D02*
Y161250D01*
Y363180D02*
X107380D01*
X-120Y256580D02*
X107380D01*
Y363180D01*
X-120Y256580D02*
Y363180D01*
X318930Y136170D02*
Y171170D01*
X338930D01*
Y136170D02*
Y171170D01*
X318930Y136170D02*
X338930D01*
X275870Y122580D02*
X310870D01*
X275870Y171740D02*
X310870D01*
Y122580D02*
Y171740D01*
X275870Y122580D02*
Y171740D01*
X170460Y114140D02*
X205460D01*
Y94140D02*
Y114140D01*
X170460Y94140D02*
X205460D01*
X170460D02*
Y114140D01*
X165420Y68720D02*
Y86220D01*
Y68720D02*
X205420D01*
Y86220D01*
X165420D02*
X205420D01*
X172630Y37260D02*
X205830D01*
Y16080D02*
Y37260D01*
X172630Y16080D02*
X205830D01*
X172630D02*
Y37260D01*
X205420Y44590D02*
Y62090D01*
X165420D02*
X205420D01*
X165420Y44590D02*
Y62090D01*
Y44590D02*
X205420D01*
M02*
