G04*
G04 #@! TF.GenerationSoftware,Altium Limited,Altium Designer,25.4.2 (15)*
G04*
G04 Layer_Color=255*
%FSLAX44Y44*%
%MOMM*%
G71*
G04*
G04 #@! TF.SameCoordinates,8EE26F3C-D7A1-4C18-BBE8-6C97D16B18D0*
G04*
G04*
G04 #@! TF.FilePolarity,Positive*
G04*
G01*
G75*
%ADD81R,1.3700X1.3700*%
%ADD82C,1.3700*%
%ADD83R,1.3700X1.3700*%
%ADD84C,1.5300*%
%ADD85R,1.5300X1.5300*%
%ADD86C,2.4000*%
%ADD87R,2.4000X2.4000*%
%ADD88C,3.7500*%
%ADD89C,4.5000*%
D81*
X381000Y26670D02*
D03*
D82*
X355600D02*
D03*
X330200D02*
D03*
X304800D02*
D03*
X279400D02*
D03*
X849630Y311150D02*
D03*
X875030D02*
D03*
X849630Y285750D02*
D03*
X875030D02*
D03*
X849630Y260350D02*
D03*
X875030D02*
D03*
X849630Y234950D02*
D03*
X875030D02*
D03*
X849630Y209550D02*
D03*
X875030D02*
D03*
X849630Y184150D02*
D03*
X875030D02*
D03*
X849630Y158750D02*
D03*
X875030D02*
D03*
X849630Y133350D02*
D03*
X325120Y281940D02*
D03*
X350520Y307340D02*
D03*
X325120D02*
D03*
D83*
X875030Y133350D02*
D03*
X350520Y281940D02*
D03*
D84*
X389890Y231140D02*
D03*
Y256540D02*
D03*
Y281940D02*
D03*
D85*
Y307340D02*
D03*
D86*
X55880Y133350D02*
D03*
Y335280D02*
D03*
D87*
Y82550D02*
D03*
Y284480D02*
D03*
D88*
X26670Y26670D02*
D03*
Y393700D02*
D03*
X882650Y27940D02*
D03*
D89*
Y392430D02*
D03*
M02*
