G04*
G04 #@! TF.GenerationSoftware,Altium Limited,Altium Designer,25.4.2 (15)*
G04*
G04 Layer_Physical_Order=1*
G04 Layer_Color=255*
%FSLAX44Y44*%
%MOMM*%
G71*
G04*
G04 #@! TF.SameCoordinates,8EE26F3C-D7A1-4C18-BBE8-6C97D16B18D0*
G04*
G04*
G04 #@! TF.FilePolarity,Positive*
G04*
G01*
G75*
%ADD12C,0.3000*%
%ADD14R,1.5000X0.9000*%
%ADD15R,0.9000X1.5000*%
%ADD64R,1.4500X1.1500*%
%ADD65R,0.9000X0.9000*%
G04:AMPARAMS|DCode=66|XSize=1mm|YSize=1mm|CornerRadius=0.25mm|HoleSize=0mm|Usage=FLASHONLY|Rotation=0.000|XOffset=0mm|YOffset=0mm|HoleType=Round|Shape=RoundedRectangle|*
%AMROUNDEDRECTD66*
21,1,1.0000,0.5000,0,0,0.0*
21,1,0.5000,1.0000,0,0,0.0*
1,1,0.5000,0.2500,-0.2500*
1,1,0.5000,-0.2500,-0.2500*
1,1,0.5000,-0.2500,0.2500*
1,1,0.5000,0.2500,0.2500*
%
%ADD66ROUNDEDRECTD66*%
G04:AMPARAMS|DCode=67|XSize=1mm|YSize=1mm|CornerRadius=0.25mm|HoleSize=0mm|Usage=FLASHONLY|Rotation=90.000|XOffset=0mm|YOffset=0mm|HoleType=Round|Shape=RoundedRectangle|*
%AMROUNDEDRECTD67*
21,1,1.0000,0.5000,0,0,90.0*
21,1,0.5000,1.0000,0,0,90.0*
1,1,0.5000,0.2500,0.2500*
1,1,0.5000,0.2500,-0.2500*
1,1,0.5000,-0.2500,-0.2500*
1,1,0.5000,-0.2500,0.2500*
%
%ADD67ROUNDEDRECTD67*%
G04:AMPARAMS|DCode=68|XSize=1.84mm|YSize=0.93mm|CornerRadius=0.1163mm|HoleSize=0mm|Usage=FLASHONLY|Rotation=0.000|XOffset=0mm|YOffset=0mm|HoleType=Round|Shape=RoundedRectangle|*
%AMROUNDEDRECTD68*
21,1,1.8400,0.6975,0,0,0.0*
21,1,1.6075,0.9300,0,0,0.0*
1,1,0.2325,0.8038,-0.3488*
1,1,0.2325,-0.8038,-0.3488*
1,1,0.2325,-0.8038,0.3488*
1,1,0.2325,0.8038,0.3488*
%
%ADD68ROUNDEDRECTD68*%
G04:AMPARAMS|DCode=69|XSize=1.84mm|YSize=3.19mm|CornerRadius=0.23mm|HoleSize=0mm|Usage=FLASHONLY|Rotation=0.000|XOffset=0mm|YOffset=0mm|HoleType=Round|Shape=RoundedRectangle|*
%AMROUNDEDRECTD69*
21,1,1.8400,2.7300,0,0,0.0*
21,1,1.3800,3.1900,0,0,0.0*
1,1,0.4600,0.6900,-1.3650*
1,1,0.4600,-0.6900,-1.3650*
1,1,0.4600,-0.6900,1.3650*
1,1,0.4600,0.6900,1.3650*
%
%ADD69ROUNDEDRECTD69*%
%ADD70R,1.1500X1.1500*%
%ADD71R,1.1500X1.1500*%
G04:AMPARAMS|DCode=72|XSize=0.86mm|YSize=1.36mm|CornerRadius=0.215mm|HoleSize=0mm|Usage=FLASHONLY|Rotation=270.000|XOffset=0mm|YOffset=0mm|HoleType=Round|Shape=RoundedRectangle|*
%AMROUNDEDRECTD72*
21,1,0.8600,0.9300,0,0,270.0*
21,1,0.4300,1.3600,0,0,270.0*
1,1,0.4300,-0.4650,-0.2150*
1,1,0.4300,-0.4650,0.2150*
1,1,0.4300,0.4650,0.2150*
1,1,0.4300,0.4650,-0.2150*
%
%ADD72ROUNDEDRECTD72*%
%ADD73R,1.0000X1.1000*%
%ADD74R,1.1500X1.4500*%
G04:AMPARAMS|DCode=75|XSize=1.524mm|YSize=1.524mm|CornerRadius=0.381mm|HoleSize=0mm|Usage=FLASHONLY|Rotation=90.000|XOffset=0mm|YOffset=0mm|HoleType=Round|Shape=RoundedRectangle|*
%AMROUNDEDRECTD75*
21,1,1.5240,0.7620,0,0,90.0*
21,1,0.7620,1.5240,0,0,90.0*
1,1,0.7620,0.3810,0.3810*
1,1,0.7620,0.3810,-0.3810*
1,1,0.7620,-0.3810,-0.3810*
1,1,0.7620,-0.3810,0.3810*
%
%ADD75ROUNDEDRECTD75*%
%ADD76R,1.9812X0.5334*%
%ADD77R,3.0200X1.3400*%
G04:AMPARAMS|DCode=78|XSize=0.86mm|YSize=1.36mm|CornerRadius=0.215mm|HoleSize=0mm|Usage=FLASHONLY|Rotation=0.000|XOffset=0mm|YOffset=0mm|HoleType=Round|Shape=RoundedRectangle|*
%AMROUNDEDRECTD78*
21,1,0.8600,0.9300,0,0,0.0*
21,1,0.4300,1.3600,0,0,0.0*
1,1,0.4300,0.2150,-0.4650*
1,1,0.4300,-0.2150,-0.4650*
1,1,0.4300,-0.2150,0.4650*
1,1,0.4300,0.2150,0.4650*
%
%ADD78ROUNDEDRECTD78*%
%ADD79C,0.7000*%
%ADD80C,0.4000*%
%ADD81R,1.3700X1.3700*%
%ADD82C,1.3700*%
%ADD83R,1.3700X1.3700*%
%ADD84C,1.5300*%
%ADD85R,1.5300X1.5300*%
%ADD86C,2.4000*%
%ADD87R,2.4000X2.4000*%
%ADD88C,3.7500*%
%ADD89C,4.5000*%
%ADD90C,1.0000*%
%ADD91C,1.2700*%
%ADD92C,0.6500*%
D12*
X491490Y156210D02*
X513080Y177800D01*
X491490Y97190D02*
Y156210D01*
X488950Y94650D02*
X491490Y97190D01*
X618490Y142240D02*
X624840Y135890D01*
X618490Y167640D02*
X624840Y173990D01*
X618490Y142240D02*
Y167640D01*
X624840Y135890D02*
X659130D01*
X624840Y173990D02*
X661410D01*
X665480Y94650D02*
Y129540D01*
X659130Y135890D02*
X665480Y129540D01*
X661410Y173990D02*
X663950Y171450D01*
X513080Y177800D02*
Y300990D01*
X505920Y308150D02*
X513080Y300990D01*
X491950Y308150D02*
X505920D01*
X488950Y311150D02*
X491950Y308150D01*
X236728Y288290D02*
X294963D01*
X296233Y289560D02*
X297180D01*
X294963Y288290D02*
X296233Y289560D01*
X237363Y300355D02*
X296545D01*
X297180Y299720D01*
X236728Y300990D02*
X237363Y300355D01*
D14*
X488950Y336550D02*
D03*
Y323850D02*
D03*
Y311150D02*
D03*
Y298450D02*
D03*
Y285750D02*
D03*
Y273050D02*
D03*
Y260350D02*
D03*
Y247650D02*
D03*
Y234950D02*
D03*
Y222250D02*
D03*
Y209550D02*
D03*
Y196850D02*
D03*
Y184150D02*
D03*
X663950Y171450D02*
D03*
Y184150D02*
D03*
Y196850D02*
D03*
Y209550D02*
D03*
Y222250D02*
D03*
Y234950D02*
D03*
Y247650D02*
D03*
Y260350D02*
D03*
Y273050D02*
D03*
Y285750D02*
D03*
Y298450D02*
D03*
Y311150D02*
D03*
Y323850D02*
D03*
Y336550D02*
D03*
D15*
X519300Y158950D02*
D03*
X532000D02*
D03*
X544700D02*
D03*
X557400D02*
D03*
X570100D02*
D03*
X582800D02*
D03*
X595500D02*
D03*
X633600D02*
D03*
D64*
X130810Y78630D02*
D03*
Y96630D02*
D03*
X596900Y84040D02*
D03*
Y66040D02*
D03*
X422910Y87850D02*
D03*
Y69850D02*
D03*
X328930Y144670D02*
D03*
Y162670D02*
D03*
D65*
X547450Y273350D02*
D03*
Y259350D02*
D03*
Y245350D02*
D03*
X561450D02*
D03*
X575450D02*
D03*
Y259350D02*
D03*
Y273350D02*
D03*
X561450D02*
D03*
Y259350D02*
D03*
D66*
X772160Y259080D02*
D03*
D67*
X753110Y234950D02*
D03*
X792480Y276860D02*
D03*
X802640Y104140D02*
D03*
X724695Y343695D02*
D03*
X328930Y205740D02*
D03*
X723900Y135890D02*
D03*
D68*
X197750Y177940D02*
D03*
Y154940D02*
D03*
Y131940D02*
D03*
D69*
X259450Y154940D02*
D03*
D70*
X447360Y217170D02*
D03*
X423860D02*
D03*
X447360Y195580D02*
D03*
X423860D02*
D03*
X724220Y154940D02*
D03*
X700720D02*
D03*
X447360Y173990D02*
D03*
X423860D02*
D03*
X724220Y274320D02*
D03*
X700720D02*
D03*
X724220Y227330D02*
D03*
X700720D02*
D03*
X724220Y250190D02*
D03*
X700720D02*
D03*
Y205740D02*
D03*
X724220D02*
D03*
X700720Y181610D02*
D03*
X724220D02*
D03*
X700720Y304800D02*
D03*
X724220D02*
D03*
Y325120D02*
D03*
X700720D02*
D03*
X173670Y77470D02*
D03*
X197170D02*
D03*
Y53340D02*
D03*
X173670D02*
D03*
D71*
X532130Y65720D02*
D03*
Y89220D02*
D03*
X624840Y65720D02*
D03*
Y89220D02*
D03*
X449580Y69530D02*
D03*
Y93030D02*
D03*
X297180Y317500D02*
D03*
Y341000D02*
D03*
Y270510D02*
D03*
Y247010D02*
D03*
X267970Y317500D02*
D03*
Y341000D02*
D03*
Y270830D02*
D03*
Y247330D02*
D03*
X156210Y282890D02*
D03*
Y306390D02*
D03*
X129540Y282890D02*
D03*
Y306390D02*
D03*
D72*
X563880Y84270D02*
D03*
Y64770D02*
D03*
D73*
X665480Y19650D02*
D03*
Y94650D02*
D03*
X488950Y19650D02*
D03*
Y94650D02*
D03*
D74*
X427880Y275590D02*
D03*
X445880D02*
D03*
X427880Y300990D02*
D03*
X445880D02*
D03*
X427880Y325120D02*
D03*
X445880D02*
D03*
X178960Y104140D02*
D03*
X196960D02*
D03*
D75*
X130810Y53340D02*
D03*
D76*
X236728Y275590D02*
D03*
Y288290D02*
D03*
Y300990D02*
D03*
Y313690D02*
D03*
X187452D02*
D03*
Y300990D02*
D03*
Y288290D02*
D03*
Y275590D02*
D03*
D77*
X293370Y131760D02*
D03*
Y162560D02*
D03*
D78*
X179480Y26670D02*
D03*
X198980D02*
D03*
D79*
X561340Y245110D02*
Y259080D01*
Y273050D01*
Y259080D02*
X575310D01*
X547370D02*
X561340D01*
X485140Y336550D02*
X488950D01*
X412750Y275590D02*
X427880D01*
X412750Y326390D02*
X413385Y325755D01*
X427245D01*
X427880Y325120D01*
X218370Y177870D02*
X218440Y177800D01*
X197820Y177870D02*
X218370D01*
X197750Y177940D02*
X197820Y177870D01*
X325120Y130810D02*
X326211Y131901D01*
Y142420D01*
X328461Y144670D01*
X328930D01*
X324645Y131285D02*
X325120Y130810D01*
X293845Y131285D02*
X324645D01*
X293370Y131760D02*
X293845Y131285D01*
X178960Y107840D02*
X179070Y107950D01*
X178960Y104140D02*
Y107840D01*
X113030Y96520D02*
X113085Y96575D01*
X130755D01*
X130810Y96630D01*
X427880Y300990D02*
Y325120D01*
Y275590D02*
Y300990D01*
X188285Y274757D02*
X191770D01*
Y247330D02*
Y274757D01*
Y247330D02*
X267970D01*
X158750Y214310D02*
X191770Y247330D01*
X158750Y97100D02*
Y214310D01*
X176530Y265430D02*
X185420Y274320D01*
X139700Y265430D02*
X176530D01*
X131790Y273340D02*
Y280640D01*
Y273340D02*
X139700Y265430D01*
X129540Y282890D02*
X131790Y280640D01*
X297020Y247170D02*
X297180Y247010D01*
X268130Y247170D02*
X297020D01*
X267970Y247330D02*
X268130Y247170D01*
X139700Y78050D02*
X158750Y97100D01*
X139700Y78050D02*
X173090D01*
X328875Y162615D02*
X328930Y162670D01*
X293425Y162615D02*
X328875D01*
X293370Y162560D02*
X293425Y162615D01*
X265150Y162560D02*
X293370D01*
X259450Y156860D02*
X265150Y162560D01*
X259450Y154940D02*
Y156860D01*
X197355Y131545D02*
X197750Y131940D01*
X197355Y104535D02*
Y131545D01*
X196960Y104140D02*
X197355Y104535D01*
X196960Y104140D02*
X197065Y104035D01*
Y77575D02*
Y104035D01*
Y77575D02*
X197170Y77470D01*
X173670Y53340D02*
Y77470D01*
X173090Y78050D02*
X173670Y77470D01*
X131390Y78050D02*
X139700D01*
X130810Y78630D02*
X131390Y78050D01*
X130810Y53340D02*
Y78630D01*
X59800D02*
X130810D01*
X55880Y82550D02*
X59800Y78630D01*
D80*
X628330Y92710D02*
X663540D01*
X624840Y89220D02*
X628330Y92710D01*
X663540D02*
X665480Y94650D01*
X187960Y314198D02*
Y325120D01*
X187452Y313690D02*
X187960Y314198D01*
X179910Y11860D02*
X180340Y11430D01*
X179910Y11860D02*
Y26240D01*
X179480Y26670D02*
X179910Y26240D01*
X773430Y276860D02*
X792480D01*
X773430D02*
X791210Y259080D01*
Y175260D02*
Y259080D01*
X726760Y276860D02*
X773430D01*
X760730Y247650D02*
X772160Y259080D01*
X760730Y247650D02*
X770890D01*
X726760D02*
X760730D01*
X741680Y227330D02*
X746695Y232345D01*
X750505D02*
X753110Y234950D01*
X746695Y232345D02*
X750505D01*
X267970Y341000D02*
X297180D01*
X187452Y275590D02*
X204470D01*
X231780Y341000D02*
X267970D01*
X212090Y321310D02*
X231780Y341000D01*
X212090Y283210D02*
Y321310D01*
X204470Y275590D02*
X212090Y283210D01*
X663950Y285750D02*
X678180D01*
X663950Y298450D02*
X678180D01*
X447150Y323850D02*
X488950D01*
X328930Y162670D02*
Y237490D01*
X236728Y275590D02*
X263210D01*
X267970Y270830D01*
X278130Y307340D02*
X325120D01*
X267970Y317500D02*
X278130Y307340D01*
X267970Y270830D02*
X279080Y281940D01*
X325120D01*
X264160Y313690D02*
X267970Y317500D01*
X236728Y313690D02*
X264160D01*
X60960Y279400D02*
X90170D01*
X55880Y284480D02*
X60960Y279400D01*
X90170D02*
X103410Y292640D01*
X55880Y335280D02*
X84770Y306390D01*
X156210D01*
X103410Y292640D02*
X146460D01*
X167960Y285672D02*
X170578Y288290D01*
X146460Y292640D02*
X156210Y282890D01*
X170578Y288290D02*
X187452D01*
X156210Y282890D02*
X158992Y285672D01*
X167960D01*
X170578Y300990D02*
X187452D01*
X167960Y303608D02*
X170578Y300990D01*
X158992Y303608D02*
X167960D01*
X156210Y306390D02*
X158992Y303608D01*
X725170Y344170D02*
Y346710D01*
X724695Y343695D02*
X725170Y344170D01*
X724695Y325595D02*
Y343695D01*
X721360Y181610D02*
X724220D01*
X723900Y135890D02*
Y154620D01*
X724220Y154940D01*
X383540Y106680D02*
Y152400D01*
X724220Y205740D02*
X726440D01*
X724220Y325120D02*
X724695Y325595D01*
X197170Y53340D02*
X198075Y52435D01*
Y27575D02*
Y52435D01*
Y27575D02*
X198980Y26670D01*
X724220Y274320D02*
X726760Y276860D01*
X724220Y250190D02*
X726760Y247650D01*
X770890D02*
X781050Y237490D01*
Y160020D02*
Y237490D01*
X803910Y177800D02*
Y295910D01*
X791210Y175260D02*
X807720Y158750D01*
X849630D01*
X724220Y304800D02*
X795020D01*
X803910Y295910D01*
X724220Y325120D02*
X802640D01*
X819150Y266700D02*
Y308610D01*
X802640Y325120D02*
X819150Y308610D01*
Y266700D02*
X825500Y260350D01*
X405130Y173990D02*
X423860D01*
X383540Y152400D02*
X405130Y173990D01*
X361950Y127000D02*
Y176530D01*
X373380Y116840D02*
Y168910D01*
X400050Y195580D01*
X421860Y215170D02*
X423860Y217170D01*
X400590Y215170D02*
X421860D01*
X361950Y176530D02*
X400590Y215170D01*
X400050Y195580D02*
X423860D01*
X724220Y227330D02*
X741680D01*
X759460Y209550D01*
X769620Y165100D02*
Y233680D01*
X759460Y154940D02*
X769620Y165100D01*
X724220Y154940D02*
X759460D01*
X825500Y260350D02*
X849630D01*
X781050Y160020D02*
X807720Y133350D01*
X849630D01*
X447360Y173990D02*
X457520Y184150D01*
X488950D01*
X488315Y196215D02*
X488950Y196850D01*
X447995Y196215D02*
X488315D01*
X447360Y195580D02*
X447995Y196215D01*
X447360Y217170D02*
X454980Y209550D01*
X488950D01*
X488140Y93840D02*
X488950Y94650D01*
X450390Y93840D02*
X488140D01*
X449580Y93030D02*
X450390Y93840D01*
X563405Y65245D02*
X563880Y64770D01*
X532605Y65245D02*
X563405D01*
X532130Y65720D02*
X532605Y65245D01*
X532065Y89285D02*
X532130Y89220D01*
X532065Y89285D02*
Y158885D01*
X532000Y158950D02*
X532065Y158885D01*
X636100Y154940D02*
X700720D01*
X633600Y157440D02*
X636100Y154940D01*
X633600Y157440D02*
Y158950D01*
X685480Y196850D02*
X700720Y181610D01*
X663950Y196850D02*
X685480D01*
X696910Y209550D02*
X700720Y205740D01*
X663950Y209550D02*
X696910D01*
X693100Y234950D02*
X700720Y227330D01*
X663950Y234950D02*
X693100D01*
X699450Y248920D02*
X700720Y250190D01*
X665220Y248920D02*
X699450D01*
X663950Y247650D02*
X665220Y248920D01*
X700085Y273685D02*
X700720Y274320D01*
X664585Y273685D02*
X700085D01*
X663950Y273050D02*
X664585Y273685D01*
X694370Y311150D02*
X700720Y304800D01*
X663950Y311150D02*
X694370D01*
X700085Y324485D02*
X700720Y325120D01*
X664585Y324485D02*
X700085D01*
X663950Y323850D02*
X664585Y324485D01*
X349250Y81280D02*
Y156210D01*
X360680Y69850D02*
X422910D01*
X349250Y81280D02*
X360680Y69850D01*
X343647Y161813D02*
X349250Y156210D01*
X329787Y161813D02*
X343647D01*
X328930Y162670D02*
X329787Y161813D01*
X473390Y45720D02*
X576580D01*
X449420Y69690D02*
X473390Y45720D01*
X576580D02*
X591650Y60790D01*
Y62290D02*
X595400Y66040D01*
X596900D01*
X591650Y60790D02*
Y62290D01*
X624680Y65880D02*
X624840Y65720D01*
X597060Y65880D02*
X624680D01*
X596900Y66040D02*
X597060Y65880D01*
X423070Y69690D02*
X449420D01*
X422910Y69850D02*
X423070Y69690D01*
X347980Y256540D02*
X389890D01*
X328930Y237490D02*
X347980Y256540D01*
X445880Y325120D02*
X447150Y323850D01*
X445880Y275590D02*
Y300990D01*
Y325120D01*
X445770Y275480D02*
X445880Y275590D01*
X445770Y261620D02*
Y275480D01*
X440690Y256540D02*
X445770Y261620D01*
X389890Y256540D02*
X440690D01*
D81*
X381000Y26670D02*
D03*
D82*
X355600D02*
D03*
X330200D02*
D03*
X304800D02*
D03*
X279400D02*
D03*
X849630Y311150D02*
D03*
X875030D02*
D03*
X849630Y285750D02*
D03*
X875030D02*
D03*
X849630Y260350D02*
D03*
X875030D02*
D03*
X849630Y234950D02*
D03*
X875030D02*
D03*
X849630Y209550D02*
D03*
X875030D02*
D03*
X849630Y184150D02*
D03*
X875030D02*
D03*
X849630Y158750D02*
D03*
X875030D02*
D03*
X849630Y133350D02*
D03*
X325120Y281940D02*
D03*
X350520Y307340D02*
D03*
X325120D02*
D03*
D83*
X875030Y133350D02*
D03*
X350520Y281940D02*
D03*
D84*
X389890Y231140D02*
D03*
Y256540D02*
D03*
Y281940D02*
D03*
D85*
Y307340D02*
D03*
D86*
X55880Y133350D02*
D03*
Y335280D02*
D03*
D87*
Y82550D02*
D03*
Y284480D02*
D03*
D88*
X26670Y26670D02*
D03*
Y393700D02*
D03*
X882650Y27940D02*
D03*
D89*
Y392430D02*
D03*
D90*
X519430Y152400D02*
D03*
X422910Y91440D02*
D03*
X488950Y16510D02*
D03*
X665480D02*
D03*
X668020Y336550D02*
D03*
X485140D02*
D03*
X187960Y325120D02*
D03*
X547370Y245110D02*
D03*
X561340D02*
D03*
X575310D02*
D03*
Y259080D02*
D03*
X561340D02*
D03*
X547370D02*
D03*
X575310Y273050D02*
D03*
X561340D02*
D03*
X547370D02*
D03*
X596900Y85090D02*
D03*
X563880D02*
D03*
X412750Y275590D02*
D03*
Y326390D02*
D03*
X180340Y11430D02*
D03*
X179070Y107950D02*
D03*
D91*
X218440Y177800D02*
D03*
X325120Y130810D02*
D03*
X113030Y96520D02*
D03*
D92*
X802640Y104140D02*
D03*
X678180Y285750D02*
D03*
Y298450D02*
D03*
X297180Y271730D02*
D03*
Y317500D02*
D03*
Y289560D02*
D03*
Y299720D02*
D03*
X721360Y181610D02*
D03*
X383540Y106680D02*
D03*
X726440Y205740D02*
D03*
X803910Y177800D02*
D03*
X361950Y127000D02*
D03*
X373380Y116840D02*
D03*
X759460Y209550D02*
D03*
X769620Y233680D02*
D03*
M02*
