G04*
G04 #@! TF.GenerationSoftware,Altium Limited,Altium Designer,25.4.2 (15)*
G04*
G04 Layer_Color=65535*
%FSLAX44Y44*%
%MOMM*%
G71*
G04*
G04 #@! TF.SameCoordinates,8EE26F3C-D7A1-4C18-BBE8-6C97D16B18D0*
G04*
G04*
G04 #@! TF.FilePolarity,Positive*
G04*
G01*
G75*
%ADD10C,0.2000*%
%ADD11C,0.1000*%
%ADD12C,0.3000*%
%ADD13C,0.2540*%
%ADD14R,1.5000X0.9000*%
%ADD15R,0.9000X1.5000*%
%ADD16C,0.1270*%
%ADD17C,0.1524*%
D10*
X401200Y26670D02*
G03*
X401200Y26670I-1000J0D01*
G01*
X876030Y95100D02*
G03*
X876030Y95100I-1000J0D01*
G01*
X182100Y177440D02*
G03*
X182100Y177440I-1000J0D01*
G01*
X678580Y104350D02*
G03*
X678580Y104350I-1000J0D01*
G01*
X502050D02*
G03*
X502050Y104350I-1000J0D01*
G01*
X390890Y326740D02*
G03*
X390890Y326740I-1000J0D01*
G01*
X351520Y262740D02*
G03*
X351520Y262740I-1000J0D01*
G01*
X115880Y82550D02*
G03*
X115880Y82550I-1000J0D01*
G01*
Y284480D02*
G03*
X115880Y284480I-1000J0D01*
G01*
X266700Y13970D02*
Y39370D01*
X393700Y13970D02*
Y39370D01*
X266700D02*
X393700D01*
X266700Y13970D02*
X393700D01*
X312420Y294640D02*
X363220D01*
X125310Y87630D02*
X136310D01*
X689610Y335280D02*
Y414020D01*
Y265430D02*
Y335280D01*
X737870D01*
Y265430D02*
Y335280D01*
X689610Y265430D02*
X737870D01*
X703580Y13970D02*
Y144780D01*
X708237D01*
X690880D02*
X708237D01*
X689610D02*
Y260350D01*
X737870D01*
Y144780D02*
Y260350D01*
X689610Y144780D02*
X737870D01*
X486450Y343950D02*
Y411450D01*
X666450D01*
Y343950D02*
Y411450D01*
Y156450D02*
Y163950D01*
X641450Y156450D02*
X666450D01*
X486450D02*
X511450D01*
X486450D02*
Y163950D01*
X908680Y101600D02*
Y342900D01*
X815980Y101600D02*
Y342900D01*
X908680D01*
X815980Y101600D02*
X908680D01*
X591400Y75040D02*
X602400D01*
X417410Y78850D02*
X428410D01*
X377190Y218440D02*
Y320040D01*
X402590Y218440D02*
Y320040D01*
X377190Y218440D02*
X402590D01*
X377190Y320040D02*
X402590D01*
X436880Y270090D02*
Y281090D01*
Y295490D02*
Y306490D01*
Y319620D02*
Y330620D01*
X312420Y269240D02*
X363220D01*
X312420Y320040D02*
X363220D01*
X312420Y269240D02*
Y320040D01*
X363220Y269240D02*
Y320040D01*
X323430Y153670D02*
X334430D01*
X187960Y98640D02*
Y109640D01*
D11*
X475450Y336550D02*
G03*
X476450Y336550I500J0D01*
G01*
D02*
G03*
X475450Y336550I-500J0D01*
G01*
D12*
X564880Y96520D02*
G03*
X564880Y96520I-1000J0D01*
G01*
X168230Y26670D02*
G03*
X168230Y26670I-1000J0D01*
G01*
D13*
X248920Y266700D02*
G03*
X248920Y266700I-1270J0D01*
G01*
X49670Y26670D02*
G03*
X49670Y26670I-23000J0D01*
G01*
Y393700D02*
G03*
X49670Y393700I-23000J0D01*
G01*
X905650Y392430D02*
G03*
X905650Y392430I-23000J0D01*
G01*
Y27940D02*
G03*
X905650Y27940I-23000J0D01*
G01*
X289560Y179392D02*
X297824D01*
X293692Y183524D02*
Y175260D01*
X568334Y114470D02*
X566268Y116536D01*
X562136D01*
X560070Y114470D01*
Y106206D01*
X562136Y104140D01*
X566268D01*
X568334Y106206D01*
X52714Y181780D02*
X50648Y183846D01*
X46516D01*
X44450Y181780D01*
Y173516D01*
X46516Y171450D01*
X50648D01*
X52714Y173516D01*
Y177648D01*
X48582D01*
X56846Y171450D02*
Y183846D01*
X65110Y171450D01*
Y183846D01*
X69242D02*
Y171450D01*
X75440D01*
X77506Y173516D01*
Y181780D01*
X75440Y183846D01*
X69242D01*
X69850Y252426D02*
Y240030D01*
X76048D01*
X78114Y242096D01*
Y244162D01*
X76048Y246228D01*
X69850D01*
X76048D01*
X78114Y248294D01*
Y250360D01*
X76048Y252426D01*
X69850D01*
Y368300D02*
Y376564D01*
X73982Y380696D01*
X78114Y376564D01*
Y368300D01*
Y374498D01*
X69850D01*
X372110Y362120D02*
X374176Y364186D01*
X378308D01*
X380374Y362120D01*
Y360054D01*
X378308Y357988D01*
X376242D01*
X378308D01*
X380374Y355922D01*
Y353856D01*
X378308Y351790D01*
X374176D01*
X372110Y353856D01*
X384506Y351790D02*
Y353856D01*
X386572D01*
Y351790D01*
X384506D01*
X394836Y362120D02*
X396902Y364186D01*
X401034D01*
X403100Y362120D01*
Y360054D01*
X401034Y357988D01*
X398968D01*
X401034D01*
X403100Y355922D01*
Y353856D01*
X401034Y351790D01*
X396902D01*
X394836Y353856D01*
X407232Y364186D02*
Y355922D01*
X411364Y351790D01*
X415496Y355922D01*
Y364186D01*
X381644Y344340D02*
X379578Y346406D01*
X375446D01*
X373380Y344340D01*
Y336076D01*
X375446Y334010D01*
X379578D01*
X381644Y336076D01*
Y340208D01*
X377512D01*
X385776Y334010D02*
Y346406D01*
X394040Y334010D01*
Y346406D01*
X398172D02*
Y334010D01*
X404370D01*
X406436Y336076D01*
Y344340D01*
X404370Y346406D01*
X398172D01*
X373380Y369570D02*
Y381966D01*
X379578D01*
X381644Y379900D01*
Y375768D01*
X379578Y373702D01*
X373380D01*
X377512D02*
X381644Y369570D01*
X385776Y381966D02*
X394040Y369570D01*
Y381966D02*
X385776Y369570D01*
X370840Y399746D02*
X379104D01*
X374972D01*
Y387350D01*
X383236Y399746D02*
X391500Y387350D01*
Y399746D02*
X383236Y387350D01*
X609600Y30176D02*
X613732D01*
X611666D01*
Y17780D01*
X609600D01*
X613732D01*
X626128Y30176D02*
X621996D01*
X619930Y28110D01*
Y19846D01*
X621996Y17780D01*
X626128D01*
X628194Y19846D01*
Y28110D01*
X626128Y30176D01*
X632326Y28110D02*
X634392Y30176D01*
X638524D01*
X640590Y28110D01*
Y19846D01*
X638524Y17780D01*
X634392D01*
X632326Y19846D01*
Y28110D01*
X443874Y31446D02*
X435610D01*
Y19050D01*
X443874D01*
X435610Y25248D02*
X439742D01*
X448006Y19050D02*
Y31446D01*
X456270Y19050D01*
Y31446D01*
X161934Y30650D02*
X159868Y32716D01*
X155736D01*
X153670Y30650D01*
Y22386D01*
X155736Y20320D01*
X159868D01*
X161934Y22386D01*
X231493Y210431D02*
X239757D01*
X235625D01*
Y198035D01*
X243889D02*
Y210431D01*
X250087D01*
X252153Y208365D01*
Y204233D01*
X250087Y202167D01*
X243889D01*
X256285Y195969D02*
X264549D01*
X268681Y208365D02*
X270747Y210431D01*
X274879D01*
X276945Y208365D01*
Y206299D01*
X274879Y204233D01*
X272813D01*
X274879D01*
X276945Y202167D01*
Y200101D01*
X274879Y198035D01*
X270747D01*
X268681Y200101D01*
X281077Y198035D02*
Y200101D01*
X283143D01*
Y198035D01*
X281077D01*
X291407Y208365D02*
X293473Y210431D01*
X297605D01*
X299671Y208365D01*
Y206299D01*
X297605Y204233D01*
X295539D01*
X297605D01*
X299671Y202167D01*
Y200101D01*
X297605Y198035D01*
X293473D01*
X291407Y200101D01*
X303803Y210431D02*
Y202167D01*
X307935Y198035D01*
X312067Y202167D01*
Y210431D01*
X186696Y209548D02*
Y199391D01*
X191774Y194312D01*
X196852Y199391D01*
Y209548D01*
X201931Y194312D02*
Y209548D01*
X209548D01*
X212088Y207008D01*
Y201930D01*
X209548Y199391D01*
X201931D01*
X207009D02*
X212088Y194312D01*
X217166D02*
X222244D01*
X219705D01*
Y209548D01*
X217166Y207008D01*
X179073Y264158D02*
Y251462D01*
X181612Y248923D01*
X186691D01*
X189230Y251462D01*
Y264158D01*
X194308Y248923D02*
X199387D01*
X196848D01*
Y264158D01*
X194308Y261618D01*
X733957Y138278D02*
X742221D01*
X738089D01*
Y125882D01*
X746353D02*
Y138278D01*
X752551D01*
X754617Y136212D01*
Y132080D01*
X752551Y130014D01*
X746353D01*
X758749Y125882D02*
X762881D01*
X760815D01*
Y138278D01*
X758749Y136212D01*
X769079D02*
X771145Y138278D01*
X775277D01*
X777343Y136212D01*
Y127948D01*
X775277Y125882D01*
X771145D01*
X769079Y127948D01*
Y136212D01*
X67322Y34287D02*
X77478D01*
X72400D01*
Y19052D01*
X82557D02*
Y34287D01*
X90174D01*
X92713Y31748D01*
Y26670D01*
X90174Y24130D01*
X82557D01*
X97792Y16513D02*
X107948D01*
X123183Y34287D02*
X113027D01*
Y26670D01*
X118105Y29209D01*
X120644D01*
X123183Y26670D01*
Y21591D01*
X120644Y19052D01*
X115566D01*
X113027Y21591D01*
X128262Y34287D02*
Y24130D01*
X133340Y19052D01*
X138419Y24130D01*
Y34287D01*
X744372Y243822D02*
Y252086D01*
Y247954D01*
X756768D01*
Y256218D02*
X744372D01*
Y262416D01*
X746438Y264482D01*
X750570D01*
X752636Y262416D01*
Y256218D01*
X746438Y268614D02*
X744372Y270680D01*
Y274812D01*
X746438Y276878D01*
X748504D01*
X750570Y274812D01*
X752636Y276878D01*
X754702D01*
X756768Y274812D01*
Y270680D01*
X754702Y268614D01*
X752636D01*
X750570Y270680D01*
X748504Y268614D01*
X746438D01*
X750570Y270680D02*
Y274812D01*
X790718Y87478D02*
X798982D01*
X794850D01*
Y75082D01*
X803114D02*
Y87478D01*
X809312D01*
X811378Y85412D01*
Y81280D01*
X809312Y79214D01*
X803114D01*
X815510Y75082D02*
X819642D01*
X817576D01*
Y87478D01*
X815510Y85412D01*
X788822Y232392D02*
Y240656D01*
Y236524D01*
X801218D01*
Y244788D02*
X788822D01*
Y250986D01*
X790888Y253052D01*
X795020D01*
X797086Y250986D01*
Y244788D01*
X801218Y263382D02*
X788822D01*
X795020Y257184D01*
Y265448D01*
X737767Y349098D02*
X746031D01*
X741899D01*
Y336702D01*
X750163D02*
Y349098D01*
X756361D01*
X758427Y347032D01*
Y342900D01*
X756361Y340834D01*
X750163D01*
X762559Y336702D02*
X766691D01*
X764625D01*
Y349098D01*
X762559Y347032D01*
X781153Y336702D02*
X772889D01*
X781153Y344966D01*
Y347032D01*
X779087Y349098D01*
X774955D01*
X772889Y347032D01*
X767232Y269222D02*
Y277486D01*
Y273354D01*
X779628D01*
Y281618D02*
X767232D01*
Y287816D01*
X769298Y289882D01*
X773430D01*
X775496Y287816D01*
Y281618D01*
X779628Y302278D02*
Y294014D01*
X771364Y302278D01*
X769298D01*
X767232Y300212D01*
Y296080D01*
X769298Y294014D01*
X444501Y52068D02*
X441962Y54608D01*
X436883D01*
X434344Y52068D01*
Y49529D01*
X436883Y46990D01*
X441962D01*
X444501Y44451D01*
Y41912D01*
X441962Y39372D01*
X436883D01*
X434344Y41912D01*
X459736Y39372D02*
X449579D01*
X459736Y49529D01*
Y52068D01*
X457197Y54608D01*
X452118D01*
X449579Y52068D01*
X626110D02*
X623571Y54608D01*
X618493D01*
X615953Y52068D01*
Y49529D01*
X618493Y46990D01*
X623571D01*
X626110Y44451D01*
Y41912D01*
X623571Y39372D01*
X618493D01*
X615953Y41912D01*
X631188Y39372D02*
X636267D01*
X633728D01*
Y54608D01*
X631188Y52068D01*
X137157Y320047D02*
X121922D01*
Y327664D01*
X124462Y330203D01*
X129540D01*
X132079Y327664D01*
Y320047D01*
Y325125D02*
X137157Y330203D01*
Y345438D02*
Y335282D01*
X127001Y345438D01*
X124462D01*
X121922Y342899D01*
Y337821D01*
X124462Y335282D01*
X137157Y360673D02*
Y350517D01*
X127001Y360673D01*
X124462D01*
X121922Y358134D01*
Y353056D01*
X124462Y350517D01*
X163827Y320046D02*
X148592D01*
Y327663D01*
X151132Y330202D01*
X156210D01*
X158749Y327663D01*
Y320046D01*
Y325124D02*
X163827Y330202D01*
Y345438D02*
Y335281D01*
X153671Y345438D01*
X151132D01*
X148592Y342898D01*
Y337820D01*
X151132Y335281D01*
X163827Y350516D02*
Y355594D01*
Y353055D01*
X148592D01*
X151132Y350516D01*
X214637Y241303D02*
Y256537D01*
X222254D01*
X224793Y253998D01*
Y248920D01*
X222254Y246381D01*
X214637D01*
X219715D02*
X224793Y241303D01*
X240028D02*
X229872D01*
X240028Y251459D01*
Y253998D01*
X237489Y256537D01*
X232411D01*
X229872Y253998D01*
X245107D02*
X247646Y256537D01*
X252724D01*
X255263Y253998D01*
Y243842D01*
X252724Y241303D01*
X247646D01*
X245107Y243842D01*
Y253998D01*
X290836Y218442D02*
Y233678D01*
X298454D01*
X300993Y231138D01*
Y226060D01*
X298454Y223521D01*
X290836D01*
X295914D02*
X300993Y218442D01*
X306071D02*
X311150D01*
X308610D01*
Y233678D01*
X306071Y231138D01*
X318767Y220982D02*
X321306Y218442D01*
X326385D01*
X328924Y220982D01*
Y231138D01*
X326385Y233678D01*
X321306D01*
X318767Y231138D01*
Y228599D01*
X321306Y226060D01*
X328924D01*
X289566Y355602D02*
Y370838D01*
X297184D01*
X299723Y368298D01*
Y363220D01*
X297184Y360681D01*
X289566D01*
X294645D02*
X299723Y355602D01*
X304801D02*
X309880D01*
X307340D01*
Y370838D01*
X304801Y368298D01*
X317497D02*
X320036Y370838D01*
X325115D01*
X327654Y368298D01*
Y365759D01*
X325115Y363220D01*
X327654Y360681D01*
Y358142D01*
X325115Y355602D01*
X320036D01*
X317497Y358142D01*
Y360681D01*
X320036Y363220D01*
X317497Y365759D01*
Y368298D01*
X320036Y363220D02*
X325115D01*
X243846Y355602D02*
Y370838D01*
X251464D01*
X254003Y368298D01*
Y363220D01*
X251464Y360681D01*
X243846D01*
X248925D02*
X254003Y355602D01*
X259081D02*
X264160D01*
X261620D01*
Y370838D01*
X259081Y368298D01*
X271777Y370838D02*
X281934D01*
Y368298D01*
X271777Y358142D01*
Y355602D01*
X694696Y400052D02*
Y415288D01*
X702314D01*
X704853Y412748D01*
Y407670D01*
X702314Y405131D01*
X694696D01*
X699774D02*
X704853Y400052D01*
X709931D02*
X715010D01*
X712470D01*
Y415288D01*
X709931Y412748D01*
X732784Y415288D02*
X727706Y412748D01*
X722627Y407670D01*
Y402592D01*
X725166Y400052D01*
X730245D01*
X732784Y402592D01*
Y405131D01*
X730245Y407670D01*
X722627D01*
X711206Y15243D02*
Y30477D01*
X718824D01*
X721363Y27938D01*
Y22860D01*
X718824Y20321D01*
X711206D01*
X716284D02*
X721363Y15243D01*
X726441D02*
X731520D01*
X728980D01*
Y30477D01*
X726441Y27938D01*
X749294Y30477D02*
X739137D01*
Y22860D01*
X744215Y25399D01*
X746755D01*
X749294Y22860D01*
Y17782D01*
X746755Y15243D01*
X741676D01*
X739137Y17782D01*
X711206Y80013D02*
Y95247D01*
X718824D01*
X721363Y92708D01*
Y87630D01*
X718824Y85091D01*
X711206D01*
X716284D02*
X721363Y80013D01*
X726441D02*
X731520D01*
X728980D01*
Y95247D01*
X726441Y92708D01*
X746755Y80013D02*
Y95247D01*
X739137Y87630D01*
X749294D01*
X694696Y358143D02*
Y373377D01*
X702314D01*
X704853Y370838D01*
Y365760D01*
X702314Y363221D01*
X694696D01*
X699774D02*
X704853Y358143D01*
X709931D02*
X715010D01*
X712470D01*
Y373377D01*
X709931Y370838D01*
X722627D02*
X725166Y373377D01*
X730245D01*
X732784Y370838D01*
Y368299D01*
X730245Y365760D01*
X727706D01*
X730245D01*
X732784Y363221D01*
Y360682D01*
X730245Y358143D01*
X725166D01*
X722627Y360682D01*
X694696Y378462D02*
Y393698D01*
X702314D01*
X704853Y391158D01*
Y386080D01*
X702314Y383541D01*
X694696D01*
X699774D02*
X704853Y378462D01*
X709931D02*
X715010D01*
X712470D01*
Y393698D01*
X709931Y391158D01*
X732784Y378462D02*
X722627D01*
X732784Y388619D01*
Y391158D01*
X730245Y393698D01*
X725166D01*
X722627Y391158D01*
X711205Y100332D02*
Y115568D01*
X718823D01*
X721362Y113028D01*
Y107950D01*
X718823Y105411D01*
X711205D01*
X716284D02*
X721362Y100332D01*
X726440D02*
X731519D01*
X728980D01*
Y115568D01*
X726440Y113028D01*
X739136Y100332D02*
X744215D01*
X741675D01*
Y115568D01*
X739136Y113028D01*
X539748Y13976D02*
X524512D01*
Y21594D01*
X527052Y24133D01*
X532130D01*
X534669Y21594D01*
Y13976D01*
Y19054D02*
X539748Y24133D01*
Y29211D02*
Y34290D01*
Y31750D01*
X524512D01*
X527052Y29211D01*
Y41907D02*
X524512Y44446D01*
Y49525D01*
X527052Y52064D01*
X537208D01*
X539748Y49525D01*
Y44446D01*
X537208Y41907D01*
X527052D01*
X441964Y105413D02*
Y120647D01*
X449582D01*
X452121Y118108D01*
Y113030D01*
X449582Y110491D01*
X441964D01*
X447043D02*
X452121Y105413D01*
X457199Y107952D02*
X459738Y105413D01*
X464817D01*
X467356Y107952D01*
Y118108D01*
X464817Y120647D01*
X459738D01*
X457199Y118108D01*
Y115569D01*
X459738Y113030D01*
X467356D01*
X618494Y102872D02*
Y118108D01*
X626112D01*
X628651Y115568D01*
Y110490D01*
X626112Y107951D01*
X618494D01*
X623573D02*
X628651Y102872D01*
X633729Y115568D02*
X636268Y118108D01*
X641347D01*
X643886Y115568D01*
Y113029D01*
X641347Y110490D01*
X643886Y107951D01*
Y105412D01*
X641347Y102872D01*
X636268D01*
X633729Y105412D01*
Y107951D01*
X636268Y110490D01*
X633729Y113029D01*
Y115568D01*
X636268Y110490D02*
X641347D01*
X422914Y228603D02*
Y243838D01*
X430532D01*
X433071Y241298D01*
Y236220D01*
X430532Y233681D01*
X422914D01*
X427993D02*
X433071Y228603D01*
X438149Y243838D02*
X448306D01*
Y241298D01*
X438149Y231142D01*
Y228603D01*
X212094Y45722D02*
Y60957D01*
X219712D01*
X222251Y58418D01*
Y53340D01*
X219712Y50801D01*
X212094D01*
X217173D02*
X222251Y45722D01*
X237486Y60957D02*
X232407Y58418D01*
X227329Y53340D01*
Y48262D01*
X229868Y45722D01*
X234947D01*
X237486Y48262D01*
Y50801D01*
X234947Y53340D01*
X227329D01*
X381324Y187962D02*
Y203197D01*
X388942D01*
X391481Y200658D01*
Y195580D01*
X388942Y193041D01*
X381324D01*
X386403D02*
X391481Y187962D01*
X406716Y203197D02*
X396559D01*
Y195580D01*
X401637Y198119D01*
X404177D01*
X406716Y195580D01*
Y190502D01*
X404177Y187962D01*
X399098D01*
X396559Y190502D01*
X424184Y146053D02*
Y161287D01*
X431802D01*
X434341Y158748D01*
Y153670D01*
X431802Y151131D01*
X424184D01*
X429263D02*
X434341Y146053D01*
X447037D02*
Y161287D01*
X439419Y153670D01*
X449576D01*
X711204Y36832D02*
Y52067D01*
X718822D01*
X721361Y49528D01*
Y44450D01*
X718822Y41911D01*
X711204D01*
X716283D02*
X721361Y36832D01*
X726439Y49528D02*
X728978Y52067D01*
X734057D01*
X736596Y49528D01*
Y46989D01*
X734057Y44450D01*
X731517D01*
X734057D01*
X736596Y41911D01*
Y39372D01*
X734057Y36832D01*
X728978D01*
X726439Y39372D01*
X212094Y68583D02*
Y83818D01*
X219712D01*
X222251Y81278D01*
Y76200D01*
X219712Y73661D01*
X212094D01*
X217173D02*
X222251Y68583D01*
X237486D02*
X227329D01*
X237486Y78739D01*
Y81278D01*
X234947Y83818D01*
X229868D01*
X227329Y81278D01*
X711203Y58422D02*
Y73657D01*
X718821D01*
X721360Y71118D01*
Y66040D01*
X718821Y63501D01*
X711203D01*
X716282D02*
X721360Y58422D01*
X726438D02*
X731517D01*
X728978D01*
Y73657D01*
X726438Y71118D01*
X330201Y344168D02*
X325122D01*
X327662D01*
Y331472D01*
X325122Y328932D01*
X322583D01*
X320044Y331472D01*
X345436Y344168D02*
X340358Y341628D01*
X335279Y336550D01*
Y331472D01*
X337818Y328932D01*
X342897D01*
X345436Y331472D01*
Y334011D01*
X342897Y336550D01*
X335279D01*
X15241Y251458D02*
X10163D01*
X12702D01*
Y238762D01*
X10163Y236222D01*
X7623D01*
X5084Y238762D01*
X30476Y251458D02*
X20319D01*
Y243840D01*
X25398Y246379D01*
X27937D01*
X30476Y243840D01*
Y238762D01*
X27937Y236222D01*
X22858D01*
X20319Y238762D01*
X867411Y87627D02*
X862333D01*
X864872D01*
Y74932D01*
X862333Y72393D01*
X859793D01*
X857254Y74932D01*
X880107Y72393D02*
Y87627D01*
X872489Y80010D01*
X882646D01*
X354331Y237488D02*
X349253D01*
X351792D01*
Y224792D01*
X349253Y222253D01*
X346713D01*
X344174Y224792D01*
X359409Y234948D02*
X361948Y237488D01*
X367027D01*
X369566Y234948D01*
Y232409D01*
X367027Y229870D01*
X364487D01*
X367027D01*
X369566Y227331D01*
Y224792D01*
X367027Y222253D01*
X361948D01*
X359409Y224792D01*
X408941Y33017D02*
X403862D01*
X406402D01*
Y20322D01*
X403862Y17782D01*
X401323D01*
X398784Y20322D01*
X424176Y17782D02*
X414019D01*
X424176Y27939D01*
Y30478D01*
X421637Y33017D01*
X416558D01*
X414019Y30478D01*
X15240Y186688D02*
X10162D01*
X12701D01*
Y173992D01*
X10162Y171453D01*
X7623D01*
X5083Y173992D01*
X20318Y171453D02*
X25397D01*
X22858D01*
Y186688D01*
X20318Y184148D01*
X473715Y135887D02*
X478794D01*
X476255D01*
Y120653D01*
X473715D01*
X478794D01*
X496568Y133348D02*
X494029Y135887D01*
X488950D01*
X486411Y133348D01*
Y123192D01*
X488950Y120653D01*
X494029D01*
X496568Y123192D01*
X501646Y120653D02*
X506725D01*
X504185D01*
Y135887D01*
X501646Y133348D01*
X554992Y26264D02*
X570228D01*
Y33882D01*
X567688Y36421D01*
X557532D01*
X554992Y33882D01*
Y26264D01*
X570228Y51656D02*
Y41499D01*
X560071Y51656D01*
X557532D01*
X554992Y49117D01*
Y44038D01*
X557532Y41499D01*
X212093Y34288D02*
Y19052D01*
X219711D01*
X222250Y21592D01*
Y31748D01*
X219711Y34288D01*
X212093D01*
X227328Y19052D02*
X232407D01*
X229868D01*
Y34288D01*
X227328Y31748D01*
X416561Y118108D02*
X414022Y120647D01*
X408943D01*
X406404Y118108D01*
Y107952D01*
X408943Y105413D01*
X414022D01*
X416561Y107952D01*
X421639D02*
X424178Y105413D01*
X429257D01*
X431796Y107952D01*
Y118108D01*
X429257Y120647D01*
X424178D01*
X421639Y118108D01*
Y115569D01*
X424178Y113030D01*
X431796D01*
X595631Y115568D02*
X593092Y118108D01*
X588013D01*
X585474Y115568D01*
Y105412D01*
X588013Y102872D01*
X593092D01*
X595631Y105412D01*
X600709Y115568D02*
X603248Y118108D01*
X608327D01*
X610866Y115568D01*
Y113029D01*
X608327Y110490D01*
X610866Y107951D01*
Y105412D01*
X608327Y102872D01*
X603248D01*
X600709Y105412D01*
Y107951D01*
X603248Y110490D01*
X600709Y113029D01*
Y115568D01*
X603248Y110490D02*
X608327D01*
X434341Y397508D02*
X431802Y400047D01*
X426723D01*
X424184Y397508D01*
Y387352D01*
X426723Y384813D01*
X431802D01*
X434341Y387352D01*
X439419Y400047D02*
X449576D01*
Y397508D01*
X439419Y387352D01*
Y384813D01*
X434341Y375918D02*
X431802Y378457D01*
X426723D01*
X424184Y375918D01*
Y365762D01*
X426723Y363223D01*
X431802D01*
X434341Y365762D01*
X449576Y378457D02*
X444497Y375918D01*
X439419Y370840D01*
Y365762D01*
X441958Y363223D01*
X447037D01*
X449576Y365762D01*
Y368301D01*
X447037Y370840D01*
X439419D01*
X434341Y353058D02*
X431802Y355597D01*
X426723D01*
X424184Y353058D01*
Y342902D01*
X426723Y340363D01*
X431802D01*
X434341Y342902D01*
X449576Y355597D02*
X439419D01*
Y347980D01*
X444497Y350519D01*
X447037D01*
X449576Y347980D01*
Y342902D01*
X447037Y340363D01*
X441958D01*
X439419Y342902D01*
X331471Y115568D02*
X328932Y118108D01*
X323853D01*
X321314Y115568D01*
Y105412D01*
X323853Y102872D01*
X328932D01*
X331471Y105412D01*
X344167Y102872D02*
Y118108D01*
X336549Y110490D01*
X346706D01*
X220981Y107948D02*
X218442Y110487D01*
X213363D01*
X210824Y107948D01*
Y97792D01*
X213363Y95253D01*
X218442D01*
X220981Y97792D01*
X226059Y107948D02*
X228598Y110487D01*
X233677D01*
X236216Y107948D01*
Y105409D01*
X233677Y102870D01*
X231138D01*
X233677D01*
X236216Y100331D01*
Y97792D01*
X233677Y95253D01*
X228598D01*
X226059Y97792D01*
X289561Y115568D02*
X287022Y118108D01*
X281943D01*
X279404Y115568D01*
Y105412D01*
X281943Y102872D01*
X287022D01*
X289561Y105412D01*
X304796Y102872D02*
X294639D01*
X304796Y113029D01*
Y115568D01*
X302257Y118108D01*
X297178D01*
X294639Y115568D01*
X133350Y123188D02*
X130811Y125728D01*
X125732D01*
X123193Y123188D01*
Y113032D01*
X125732Y110492D01*
X130811D01*
X133350Y113032D01*
X138428Y110492D02*
X143507D01*
X140968D01*
Y125728D01*
X138428Y123188D01*
D14*
X488950Y171450D02*
D03*
D15*
X620900Y158950D02*
D03*
X608200D02*
D03*
D16*
X211100Y187440D02*
X246100D01*
Y122440D02*
Y187440D01*
X211100Y122440D02*
X246100D01*
X211100D02*
Y187440D01*
X432810Y210920D02*
X438410D01*
X432810Y223420D02*
X438410D01*
X432810Y189330D02*
X438410D01*
X432810Y201830D02*
X438410D01*
X709670Y148690D02*
X715270D01*
X709670Y161190D02*
X715270D01*
X432810Y167740D02*
X438410D01*
X432810Y180240D02*
X438410D01*
X709670Y268070D02*
X715270D01*
X709670Y280570D02*
X715270D01*
X709670Y221080D02*
X715270D01*
X709670Y233580D02*
X715270D01*
X709670Y243940D02*
X715270D01*
X709670Y256440D02*
X715270D01*
X709670Y211990D02*
X715270D01*
X709670Y199490D02*
X715270D01*
X709670Y187860D02*
X715270D01*
X709670Y175360D02*
X715270D01*
X709670Y311050D02*
X715270D01*
X709670Y298550D02*
X715270D01*
X709670Y318870D02*
X715270D01*
X709670Y331370D02*
X715270D01*
X525880Y74670D02*
Y80270D01*
X538380Y74670D02*
Y80270D01*
X573830Y64520D02*
Y84520D01*
X553930Y64520D02*
Y84520D01*
X646980Y26650D02*
X656980D01*
X646980D02*
Y87650D01*
X656980D01*
X673980Y26650D02*
X683980D01*
Y87650D01*
X673980D02*
X683980D01*
X618590Y74670D02*
Y80270D01*
X631090Y74670D02*
Y80270D01*
X443330Y78480D02*
Y84080D01*
X455830Y78480D02*
Y84080D01*
X470450Y26650D02*
X480450D01*
X470450D02*
Y87650D01*
X480450D01*
X497450Y26650D02*
X507450D01*
Y87650D01*
X497450D02*
X507450D01*
X290930Y326450D02*
Y332050D01*
X303430Y326450D02*
Y332050D01*
Y255960D02*
Y261560D01*
X290930Y255960D02*
Y261560D01*
X261720Y326450D02*
Y332050D01*
X274220Y326450D02*
Y332050D01*
Y256280D02*
Y261880D01*
X261720Y256280D02*
Y261880D01*
X149960Y291840D02*
Y297440D01*
X162460Y291840D02*
Y297440D01*
X123290Y291840D02*
Y297440D01*
X135790Y291840D02*
Y297440D01*
X104880Y57150D02*
Y158750D01*
X2380Y57150D02*
Y158750D01*
X104880D01*
X2380Y57150D02*
X104880D01*
Y259080D02*
Y360680D01*
X2380Y259080D02*
Y360680D01*
X104880D01*
X2380Y259080D02*
X104880D01*
X278370Y141660D02*
Y152660D01*
X308370Y141660D02*
Y152660D01*
X182620Y83720D02*
X188220D01*
X182620Y71220D02*
X188220D01*
X179230Y36620D02*
X199230D01*
X179230Y16720D02*
X199230D01*
X182620Y47090D02*
X188220D01*
X182620Y59590D02*
X188220D01*
D17*
X190754Y321056D02*
X233426D01*
X190754Y268224D02*
X233426D01*
M02*
