M48
;Layer_Color=9474304
;FILE_FORMAT=4:4
METRIC,LZ
;TYPE=PLATED
T01F00S00C0.3110
T02F00S00C0.5110
T03F00S00C0.7112
T04F00S00C1.0200
T05F00S00C1.6000
T06F00S00C3.7500
;TYPE=NON_PLATED
T07F00S00C3.7500
%
T01
X0036195Y00127
X0037338Y0011684
X0038354Y0010668
X0080264Y0010414
X0080391Y001778
X0075946Y0020955
X0076962Y0023368
X0072644Y0020574
X0072136Y0018161
X0067818Y0028575
Y0029845
X0029718Y0029972
Y0028956
Y0027173
Y003175
T02
X0018034Y0001143
X0017907Y0010795
X0042291Y0009144
X0048895Y0001651
X0056388Y0008509
X005969
X0066548Y0001651
X0057531Y0024511
X0056134
X0054737
Y0025908
X0056134
X0057531
Y0027305
X0056134
X0054737
X0066802Y0033655
X0048514
X0041275Y0032639
Y0027559
X0051943Y001524
X0018796Y0032512
T03
X0011303Y0009652
X0032512Y0013081
X0021844Y001778
T04
X002794Y0002667
X003048
X003302
X003556
X00381
X0084963Y0013335
X0087503
Y0015875
Y0018415
Y0020955
Y0023495
Y0026035
Y0028575
Y0031115
X0084963
Y0028575
Y0026035
Y0023495
Y0020955
Y0018415
Y0015875
X0038989Y0023114
Y0025654
Y0028194
Y0030734
X0035052
Y0028194
X0032512
Y0030734
T05
X0005588Y0008255
Y0013335
Y0028448
Y0033528
T06
X0088265Y0039243
T07
X0002667Y0002667
X0088265Y0002794
X0002667Y003937
M30
