G04*
G04 #@! TF.GenerationSoftware,Altium Limited,Altium Designer,25.4.2 (15)*
G04*
G04 Layer_Color=8388736*
%FSLAX44Y44*%
%MOMM*%
G71*
G04*
G04 #@! TF.SameCoordinates,8EE26F3C-D7A1-4C18-BBE8-6C97D16B18D0*
G04*
G04*
G04 #@! TF.FilePolarity,Negative*
G04*
G01*
G75*
%ADD35R,1.8500X1.5500*%
%ADD36R,1.9000X1.3000*%
%ADD37R,1.3000X1.9000*%
%ADD38R,1.3000X1.3000*%
G04:AMPARAMS|DCode=39|XSize=1.4mm|YSize=1.4mm|CornerRadius=0.45mm|HoleSize=0mm|Usage=FLASHONLY|Rotation=0.000|XOffset=0mm|YOffset=0mm|HoleType=Round|Shape=RoundedRectangle|*
%AMROUNDEDRECTD39*
21,1,1.4000,0.5000,0,0,0.0*
21,1,0.5000,1.4000,0,0,0.0*
1,1,0.9000,0.2500,-0.2500*
1,1,0.9000,-0.2500,-0.2500*
1,1,0.9000,-0.2500,0.2500*
1,1,0.9000,0.2500,0.2500*
%
%ADD39ROUNDEDRECTD39*%
G04:AMPARAMS|DCode=40|XSize=1.4mm|YSize=1.4mm|CornerRadius=0.45mm|HoleSize=0mm|Usage=FLASHONLY|Rotation=90.000|XOffset=0mm|YOffset=0mm|HoleType=Round|Shape=RoundedRectangle|*
%AMROUNDEDRECTD40*
21,1,1.4000,0.5000,0,0,90.0*
21,1,0.5000,1.4000,0,0,90.0*
1,1,0.9000,0.2500,0.2500*
1,1,0.9000,0.2500,-0.2500*
1,1,0.9000,-0.2500,-0.2500*
1,1,0.9000,-0.2500,0.2500*
%
%ADD40ROUNDEDRECTD40*%
G04:AMPARAMS|DCode=41|XSize=2.24mm|YSize=1.33mm|CornerRadius=0.3162mm|HoleSize=0mm|Usage=FLASHONLY|Rotation=0.000|XOffset=0mm|YOffset=0mm|HoleType=Round|Shape=RoundedRectangle|*
%AMROUNDEDRECTD41*
21,1,2.2400,0.6975,0,0,0.0*
21,1,1.6075,1.3300,0,0,0.0*
1,1,0.6325,0.8038,-0.3488*
1,1,0.6325,-0.8038,-0.3488*
1,1,0.6325,-0.8038,0.3488*
1,1,0.6325,0.8038,0.3488*
%
%ADD41ROUNDEDRECTD41*%
G04:AMPARAMS|DCode=42|XSize=2.24mm|YSize=3.59mm|CornerRadius=0.43mm|HoleSize=0mm|Usage=FLASHONLY|Rotation=0.000|XOffset=0mm|YOffset=0mm|HoleType=Round|Shape=RoundedRectangle|*
%AMROUNDEDRECTD42*
21,1,2.2400,2.7300,0,0,0.0*
21,1,1.3800,3.5900,0,0,0.0*
1,1,0.8600,0.6900,-1.3650*
1,1,0.8600,-0.6900,-1.3650*
1,1,0.8600,-0.6900,1.3650*
1,1,0.8600,0.6900,1.3650*
%
%ADD42ROUNDEDRECTD42*%
%ADD43R,1.5500X1.5500*%
%ADD44R,1.5500X1.5500*%
G04:AMPARAMS|DCode=45|XSize=1.26mm|YSize=1.76mm|CornerRadius=0.415mm|HoleSize=0mm|Usage=FLASHONLY|Rotation=270.000|XOffset=0mm|YOffset=0mm|HoleType=Round|Shape=RoundedRectangle|*
%AMROUNDEDRECTD45*
21,1,1.2600,0.9300,0,0,270.0*
21,1,0.4300,1.7600,0,0,270.0*
1,1,0.8300,-0.4650,-0.2150*
1,1,0.8300,-0.4650,0.2150*
1,1,0.8300,0.4650,0.2150*
1,1,0.8300,0.4650,-0.2150*
%
%ADD45ROUNDEDRECTD45*%
%ADD46R,1.4000X1.5000*%
%ADD47R,1.5500X1.8500*%
G04:AMPARAMS|DCode=48|XSize=1.924mm|YSize=1.924mm|CornerRadius=0.581mm|HoleSize=0mm|Usage=FLASHONLY|Rotation=90.000|XOffset=0mm|YOffset=0mm|HoleType=Round|Shape=RoundedRectangle|*
%AMROUNDEDRECTD48*
21,1,1.9240,0.7620,0,0,90.0*
21,1,0.7620,1.9240,0,0,90.0*
1,1,1.1620,0.3810,0.3810*
1,1,1.1620,0.3810,-0.3810*
1,1,1.1620,-0.3810,-0.3810*
1,1,1.1620,-0.3810,0.3810*
%
%ADD48ROUNDEDRECTD48*%
%ADD49R,2.3812X0.9334*%
%ADD50R,3.4200X1.7400*%
G04:AMPARAMS|DCode=51|XSize=1.26mm|YSize=1.76mm|CornerRadius=0.415mm|HoleSize=0mm|Usage=FLASHONLY|Rotation=0.000|XOffset=0mm|YOffset=0mm|HoleType=Round|Shape=RoundedRectangle|*
%AMROUNDEDRECTD51*
21,1,1.2600,0.9300,0,0,0.0*
21,1,0.4300,1.7600,0,0,0.0*
1,1,0.8300,0.2150,-0.4650*
1,1,0.8300,-0.2150,-0.4650*
1,1,0.8300,-0.2150,0.4650*
1,1,0.8300,0.2150,0.4650*
%
%ADD51ROUNDEDRECTD51*%
%ADD52R,1.7700X1.7700*%
%ADD53C,1.7700*%
%ADD54R,1.7700X1.7700*%
%ADD55C,1.9300*%
%ADD56R,1.9300X1.9300*%
%ADD57C,2.8000*%
%ADD58R,2.8000X2.8000*%
%ADD59C,4.1500*%
%ADD60C,4.9000*%
%ADD61C,1.4000*%
%ADD62C,1.6700*%
%ADD63C,1.0500*%
D35*
X130810Y78630D02*
D03*
Y96630D02*
D03*
X596900Y84040D02*
D03*
Y66040D02*
D03*
X422910Y87850D02*
D03*
Y69850D02*
D03*
X328930Y144670D02*
D03*
Y162670D02*
D03*
D36*
X488950Y336550D02*
D03*
Y323850D02*
D03*
Y311150D02*
D03*
Y298450D02*
D03*
Y285750D02*
D03*
Y273050D02*
D03*
Y260350D02*
D03*
Y247650D02*
D03*
Y234950D02*
D03*
Y222250D02*
D03*
Y209550D02*
D03*
Y196850D02*
D03*
Y184150D02*
D03*
X663950Y171450D02*
D03*
Y184150D02*
D03*
Y196850D02*
D03*
Y209550D02*
D03*
Y222250D02*
D03*
Y234950D02*
D03*
Y247650D02*
D03*
Y260350D02*
D03*
Y273050D02*
D03*
Y285750D02*
D03*
Y298450D02*
D03*
Y311150D02*
D03*
Y323850D02*
D03*
Y336550D02*
D03*
D37*
X519300Y158950D02*
D03*
X532000D02*
D03*
X544700D02*
D03*
X557400D02*
D03*
X570100D02*
D03*
X582800D02*
D03*
X595500D02*
D03*
X633600D02*
D03*
D38*
X547450Y273350D02*
D03*
Y259350D02*
D03*
Y245350D02*
D03*
X561450D02*
D03*
X575450D02*
D03*
Y259350D02*
D03*
Y273350D02*
D03*
X561450D02*
D03*
Y259350D02*
D03*
D39*
X772160Y259080D02*
D03*
D40*
X753110Y234950D02*
D03*
X792480Y276860D02*
D03*
X802640Y104140D02*
D03*
X724695Y343695D02*
D03*
X328930Y205740D02*
D03*
X723900Y135890D02*
D03*
D41*
X197750Y177940D02*
D03*
Y154940D02*
D03*
Y131940D02*
D03*
D42*
X259450Y154940D02*
D03*
D43*
X447360Y217170D02*
D03*
X423860D02*
D03*
X447360Y195580D02*
D03*
X423860D02*
D03*
X724220Y154940D02*
D03*
X700720D02*
D03*
X447360Y173990D02*
D03*
X423860D02*
D03*
X724220Y274320D02*
D03*
X700720D02*
D03*
X724220Y227330D02*
D03*
X700720D02*
D03*
X724220Y250190D02*
D03*
X700720D02*
D03*
Y205740D02*
D03*
X724220D02*
D03*
X700720Y181610D02*
D03*
X724220D02*
D03*
X700720Y304800D02*
D03*
X724220D02*
D03*
Y325120D02*
D03*
X700720D02*
D03*
X173670Y77470D02*
D03*
X197170D02*
D03*
Y53340D02*
D03*
X173670D02*
D03*
D44*
X532130Y65720D02*
D03*
Y89220D02*
D03*
X624840Y65720D02*
D03*
Y89220D02*
D03*
X449580Y69530D02*
D03*
Y93030D02*
D03*
X297180Y317500D02*
D03*
Y341000D02*
D03*
Y270510D02*
D03*
Y247010D02*
D03*
X267970Y317500D02*
D03*
Y341000D02*
D03*
Y270830D02*
D03*
Y247330D02*
D03*
X156210Y282890D02*
D03*
Y306390D02*
D03*
X129540Y282890D02*
D03*
Y306390D02*
D03*
D45*
X563880Y84270D02*
D03*
Y64770D02*
D03*
D46*
X665480Y19650D02*
D03*
Y94650D02*
D03*
X488950Y19650D02*
D03*
Y94650D02*
D03*
D47*
X427880Y275590D02*
D03*
X445880D02*
D03*
X427880Y300990D02*
D03*
X445880D02*
D03*
X427880Y325120D02*
D03*
X445880D02*
D03*
X178960Y104140D02*
D03*
X196960D02*
D03*
D48*
X130810Y53340D02*
D03*
D49*
X236728Y275590D02*
D03*
Y288290D02*
D03*
Y300990D02*
D03*
Y313690D02*
D03*
X187452D02*
D03*
Y300990D02*
D03*
Y288290D02*
D03*
Y275590D02*
D03*
D50*
X293370Y131760D02*
D03*
Y162560D02*
D03*
D51*
X179480Y26670D02*
D03*
X198980D02*
D03*
D52*
X381000D02*
D03*
D53*
X355600D02*
D03*
X330200D02*
D03*
X304800D02*
D03*
X279400D02*
D03*
X849630Y311150D02*
D03*
X875030D02*
D03*
X849630Y285750D02*
D03*
X875030D02*
D03*
X849630Y260350D02*
D03*
X875030D02*
D03*
X849630Y234950D02*
D03*
X875030D02*
D03*
X849630Y209550D02*
D03*
X875030D02*
D03*
X849630Y184150D02*
D03*
X875030D02*
D03*
X849630Y158750D02*
D03*
X875030D02*
D03*
X849630Y133350D02*
D03*
X325120Y281940D02*
D03*
X350520Y307340D02*
D03*
X325120D02*
D03*
D54*
X875030Y133350D02*
D03*
X350520Y281940D02*
D03*
D55*
X389890Y231140D02*
D03*
Y256540D02*
D03*
Y281940D02*
D03*
D56*
Y307340D02*
D03*
D57*
X55880Y133350D02*
D03*
Y335280D02*
D03*
D58*
Y82550D02*
D03*
Y284480D02*
D03*
D59*
X26670Y26670D02*
D03*
Y393700D02*
D03*
X882650Y27940D02*
D03*
D60*
Y392430D02*
D03*
D61*
X519430Y152400D02*
D03*
X422910Y91440D02*
D03*
X488950Y16510D02*
D03*
X665480D02*
D03*
X668020Y336550D02*
D03*
X485140D02*
D03*
X187960Y325120D02*
D03*
X547370Y245110D02*
D03*
X561340D02*
D03*
X575310D02*
D03*
Y259080D02*
D03*
X561340D02*
D03*
X547370D02*
D03*
X575310Y273050D02*
D03*
X561340D02*
D03*
X547370D02*
D03*
X596900Y85090D02*
D03*
X563880D02*
D03*
X412750Y275590D02*
D03*
Y326390D02*
D03*
X180340Y11430D02*
D03*
X179070Y107950D02*
D03*
D62*
X218440Y177800D02*
D03*
X325120Y130810D02*
D03*
X113030Y96520D02*
D03*
D63*
X802640Y104140D02*
D03*
X678180Y285750D02*
D03*
Y298450D02*
D03*
X297180Y271730D02*
D03*
Y317500D02*
D03*
Y289560D02*
D03*
Y299720D02*
D03*
X721360Y181610D02*
D03*
X383540Y106680D02*
D03*
X726440Y205740D02*
D03*
X803910Y177800D02*
D03*
X361950Y127000D02*
D03*
X373380Y116840D02*
D03*
X759460Y209550D02*
D03*
X769620Y233680D02*
D03*
M02*
