G04*
G04 #@! TF.GenerationSoftware,Altium Limited,Altium Designer,25.4.2 (15)*
G04*
G04 Layer_Color=16711935*
%FSLAX44Y44*%
%MOMM*%
G71*
G04*
G04 #@! TF.SameCoordinates,8EE26F3C-D7A1-4C18-BBE8-6C97D16B18D0*
G04*
G04*
G04 #@! TF.FilePolarity,Negative*
G04*
G01*
G75*
%ADD52R,1.7700X1.7700*%
%ADD53C,1.7700*%
%ADD54R,1.7700X1.7700*%
%ADD55C,1.9300*%
%ADD56R,1.9300X1.9300*%
%ADD57C,2.8000*%
%ADD58R,2.8000X2.8000*%
%ADD59C,4.1500*%
%ADD60C,4.9000*%
%ADD61C,1.4000*%
%ADD62C,1.6700*%
%ADD63C,1.0500*%
D52*
X381000Y26670D02*
D03*
D53*
X355600D02*
D03*
X330200D02*
D03*
X304800D02*
D03*
X279400D02*
D03*
X849630Y311150D02*
D03*
X875030D02*
D03*
X849630Y285750D02*
D03*
X875030D02*
D03*
X849630Y260350D02*
D03*
X875030D02*
D03*
X849630Y234950D02*
D03*
X875030D02*
D03*
X849630Y209550D02*
D03*
X875030D02*
D03*
X849630Y184150D02*
D03*
X875030D02*
D03*
X849630Y158750D02*
D03*
X875030D02*
D03*
X849630Y133350D02*
D03*
X325120Y281940D02*
D03*
X350520Y307340D02*
D03*
X325120D02*
D03*
D54*
X875030Y133350D02*
D03*
X350520Y281940D02*
D03*
D55*
X389890Y231140D02*
D03*
Y256540D02*
D03*
Y281940D02*
D03*
D56*
Y307340D02*
D03*
D57*
X55880Y133350D02*
D03*
Y335280D02*
D03*
D58*
Y82550D02*
D03*
Y284480D02*
D03*
D59*
X26670Y26670D02*
D03*
Y393700D02*
D03*
X882650Y27940D02*
D03*
D60*
Y392430D02*
D03*
D61*
X519430Y152400D02*
D03*
X422910Y91440D02*
D03*
X488950Y16510D02*
D03*
X665480D02*
D03*
X668020Y336550D02*
D03*
X485140D02*
D03*
X187960Y325120D02*
D03*
X547370Y245110D02*
D03*
X561340D02*
D03*
X575310D02*
D03*
Y259080D02*
D03*
X561340D02*
D03*
X547370D02*
D03*
X575310Y273050D02*
D03*
X561340D02*
D03*
X547370D02*
D03*
X596900Y85090D02*
D03*
X563880D02*
D03*
X412750Y275590D02*
D03*
Y326390D02*
D03*
X180340Y11430D02*
D03*
X179070Y107950D02*
D03*
D62*
X218440Y177800D02*
D03*
X325120Y130810D02*
D03*
X113030Y96520D02*
D03*
D63*
X802640Y104140D02*
D03*
X678180Y285750D02*
D03*
Y298450D02*
D03*
X297180Y271730D02*
D03*
Y317500D02*
D03*
Y289560D02*
D03*
Y299720D02*
D03*
X721360Y181610D02*
D03*
X383540Y106680D02*
D03*
X726440Y205740D02*
D03*
X803910Y177800D02*
D03*
X361950Y127000D02*
D03*
X373380Y116840D02*
D03*
X759460Y209550D02*
D03*
X769620Y233680D02*
D03*
M02*
